<?xml version="1.0" encoding="UTF-8" standalone="no"?>
<svg
   xmlns:dc="http://purl.org/dc/elements/1.1/"
   xmlns:cc="http://creativecommons.org/ns#"
   xmlns:rdf="http://www.w3.org/1999/02/22-rdf-syntax-ns#"
   xmlns:svg="http://www.w3.org/2000/svg"
   xmlns="http://www.w3.org/2000/svg"
   xmlns:xlink="http://www.w3.org/1999/xlink"
   xmlns:sodipodi="http://sodipodi.sourceforge.net/DTD/sodipodi-0.dtd"
   xmlns:inkscape="http://www.inkscape.org/namespaces/inkscape"
   width="52.179653mm"
   height="87.128242mm"
   viewBox="0 0 52.179653 87.128242"
   version="1.1"
   id="svg1372"
   inkscape:version="1.0.2 (e86c8708, 2021-01-15)"
   sodipodi:docname="tree_1.svg">
  <defs
     id="defs1366">
    <filter
       inkscape:collect="always"
       style="color-interpolation-filters:sRGB"
       id="filter4155"
       x="-0.060211025"
       width="1.1204221"
       y="-0.046412356"
       height="1.0928247">
      <feGaussianBlur
         inkscape:collect="always"
         stdDeviation="0.65215752"
         id="feGaussianBlur4157" />
    </filter>
    <filter
       inkscape:collect="always"
       style="color-interpolation-filters:sRGB"
       id="filter3999"
       x="-0.09344501"
       width="1.18689"
       y="-0.043182924"
       height="1.0863658">
      <feGaussianBlur
         inkscape:collect="always"
         stdDeviation="1.2715925"
         id="feGaussianBlur4001" />
    </filter>
    <filter
       inkscape:collect="always"
       style="color-interpolation-filters:sRGB"
       id="filter4207"
       x="-0.090169467"
       width="1.1803389"
       y="-0.13979153"
       height="1.2795831">
      <feGaussianBlur
         inkscape:collect="always"
         stdDeviation="1.1286399"
         id="feGaussianBlur4209" />
    </filter>
    <filter
       inkscape:collect="always"
       style="color-interpolation-filters:sRGB"
       id="filter4251"
       x="-0.19278894"
       width="1.3855779"
       y="-0.063982345"
       height="1.1279647">
      <feGaussianBlur
         inkscape:collect="always"
         stdDeviation="0.85060187"
         id="feGaussianBlur4253" />
    </filter>
    <filter
       inkscape:collect="always"
       style="color-interpolation-filters:sRGB"
       id="filter3987"
       x="-0.10993618"
       width="1.2198724"
       y="-0.081957601"
       height="1.1639152">
      <feGaussianBlur
         inkscape:collect="always"
         stdDeviation="1.0415829"
         id="feGaussianBlur3989" />
    </filter>
    <filter
       inkscape:collect="always"
       style="color-interpolation-filters:sRGB"
       id="filter3951"
       x="-0.091495231"
       width="1.1829906"
       y="-0.092027992"
       height="1.184056">
      <feGaussianBlur
         inkscape:collect="always"
         stdDeviation="1.110431"
         id="feGaussianBlur3953" />
    </filter>
    <filter
       inkscape:collect="always"
       style="color-interpolation-filters:sRGB"
       id="filter4335"
       x="-0.06430614"
       width="1.1286123"
       y="-0.17400375"
       height="1.3480074">
      <feGaussianBlur
         inkscape:collect="always"
         stdDeviation="1.2170899"
         id="feGaussianBlur4337" />
    </filter>
    <filter
       inkscape:collect="always"
       style="color-interpolation-filters:sRGB"
       id="filter4319"
       x="-0.23378125"
       width="1.4675626"
       y="-0.11055894"
       height="1.2211179">
      <feGaussianBlur
         inkscape:collect="always"
         stdDeviation="2.1378409"
         id="feGaussianBlur4321" />
    </filter>
    <filter
       inkscape:collect="always"
       style="color-interpolation-filters:sRGB"
       id="filter3791"
       x="-0.25015056"
       width="1.5003011"
       y="-0.65994763"
       height="2.3198953">
      <feGaussianBlur
         inkscape:collect="always"
         stdDeviation="0.25808254"
         id="feGaussianBlur3793" />
    </filter>
    <inkscape:path-effect
       effect="bspline"
       id="path-effect3667"
       is_visible="true"
       lpeversion="1"
       weight="33.333333"
       steps="2"
       helper_size="0"
       apply_no_weight="true"
       apply_with_weight="true"
       only_selected="false" />
    <filter
       inkscape:collect="always"
       style="color-interpolation-filters:sRGB"
       id="filter3827"
       x="-0.17905672"
       width="1.3581134"
       y="-0.13762587"
       height="1.2752517">
      <feGaussianBlur
         inkscape:collect="always"
         stdDeviation="0.27180044"
         id="feGaussianBlur3829" />
    </filter>
    <inkscape:path-effect
       effect="bspline"
       id="path-effect3797"
       is_visible="true"
       lpeversion="1"
       weight="33.333333"
       steps="2"
       helper_size="0"
       apply_no_weight="true"
       apply_with_weight="true"
       only_selected="false" />
    <inkscape:path-effect
       effect="bspline"
       id="path-effect1390"
       is_visible="true"
       lpeversion="1"
       weight="33.333333"
       steps="2"
       helper_size="0"
       apply_no_weight="true"
       apply_with_weight="true"
       only_selected="false" />
    <inkscape:path-effect
       effect="bspline"
       id="path-effect1394"
       is_visible="true"
       lpeversion="1"
       weight="33.333333"
       steps="2"
       helper_size="0"
       apply_no_weight="true"
       apply_with_weight="true"
       only_selected="false" />
    <inkscape:path-effect
       effect="bspline"
       id="path-effect1398"
       is_visible="true"
       lpeversion="1"
       weight="33.333333"
       steps="2"
       helper_size="0"
       apply_no_weight="true"
       apply_with_weight="true"
       only_selected="false" />
    <inkscape:path-effect
       effect="bspline"
       id="path-effect1402"
       is_visible="true"
       lpeversion="1"
       weight="33.333333"
       steps="2"
       helper_size="0"
       apply_no_weight="true"
       apply_with_weight="true"
       only_selected="false" />
    <inkscape:path-effect
       effect="bspline"
       id="path-effect1406"
       is_visible="true"
       lpeversion="1"
       weight="33.333333"
       steps="2"
       helper_size="0"
       apply_no_weight="true"
       apply_with_weight="true"
       only_selected="false" />
    <inkscape:path-effect
       effect="bspline"
       id="path-effect1410"
       is_visible="true"
       lpeversion="1"
       weight="33.333333"
       steps="2"
       helper_size="0"
       apply_no_weight="true"
       apply_with_weight="true"
       only_selected="false" />
    <inkscape:path-effect
       effect="bspline"
       id="path-effect1414"
       is_visible="true"
       lpeversion="1"
       weight="33.333333"
       steps="2"
       helper_size="0"
       apply_no_weight="true"
       apply_with_weight="true"
       only_selected="false" />
    <inkscape:path-effect
       effect="bspline"
       id="path-effect1418"
       is_visible="true"
       lpeversion="1"
       weight="33.333333"
       steps="2"
       helper_size="0"
       apply_no_weight="true"
       apply_with_weight="true"
       only_selected="false" />
    <inkscape:path-effect
       effect="bspline"
       id="path-effect1422"
       is_visible="true"
       lpeversion="1"
       weight="33.333333"
       steps="2"
       helper_size="0"
       apply_no_weight="true"
       apply_with_weight="true"
       only_selected="false" />
    <inkscape:path-effect
       effect="bspline"
       id="path-effect1426"
       is_visible="true"
       lpeversion="1"
       weight="33.333333"
       steps="2"
       helper_size="0"
       apply_no_weight="true"
       apply_with_weight="true"
       only_selected="false" />
    <inkscape:path-effect
       effect="bspline"
       id="path-effect1430"
       is_visible="true"
       lpeversion="1"
       weight="33.333333"
       steps="2"
       helper_size="0"
       apply_no_weight="true"
       apply_with_weight="true"
       only_selected="false" />
    <inkscape:path-effect
       effect="bspline"
       id="path-effect1434"
       is_visible="true"
       lpeversion="1"
       weight="33.333333"
       steps="2"
       helper_size="0"
       apply_no_weight="true"
       apply_with_weight="true"
       only_selected="false" />
    <inkscape:path-effect
       effect="bspline"
       id="path-effect1438"
       is_visible="true"
       lpeversion="1"
       weight="33.333333"
       steps="2"
       helper_size="0"
       apply_no_weight="true"
       apply_with_weight="true"
       only_selected="false" />
    <inkscape:path-effect
       effect="bspline"
       id="path-effect1442"
       is_visible="true"
       lpeversion="1"
       weight="33.333333"
       steps="2"
       helper_size="0"
       apply_no_weight="true"
       apply_with_weight="true"
       only_selected="false" />
    <radialGradient
       inkscape:collect="always"
       xlink:href="#linearGradient3597-5-6"
       id="radialGradient3599"
       cx="303.23044"
       cy="376.10986"
       fx="303.23044"
       fy="376.10986"
       r="54.785225"
       gradientTransform="matrix(0.08656784,0.03217137,-0.04454237,0.11985615,68.154754,6.3757125)"
       gradientUnits="userSpaceOnUse" />
    <linearGradient
       inkscape:collect="always"
       id="linearGradient3597-5-6">
      <stop
         style="stop-color:#d1f0cb;stop-opacity:1"
         offset="0"
         id="stop3593" />
      <stop
         style="stop-color:#fefcfc;stop-opacity:0"
         offset="1"
         id="stop3595" />
    </linearGradient>
    <radialGradient
       inkscape:collect="always"
       xlink:href="#linearGradient3589"
       id="radialGradient3591"
       cx="329.7262"
       cy="437.90497"
       fx="329.7262"
       fy="437.90497"
       r="54.513046"
       gradientTransform="matrix(0.26458333,0,0,0.27799763,-12.431687,-47.222321)"
       gradientUnits="userSpaceOnUse" />
    <linearGradient
       inkscape:collect="always"
       id="linearGradient3589">
      <stop
         style="stop-color:#d83c3c;stop-opacity:1"
         offset="0"
         id="stop3585" />
      <stop
         style="stop-color:#583232;stop-opacity:0;"
         offset="1"
         id="stop3587" />
    </linearGradient>
    <linearGradient
       inkscape:collect="always"
       xlink:href="#linearGradient3597-5"
       id="linearGradient3610"
       x1="327.60165"
       y1="490.125"
       x2="375.06534"
       y2="490.125"
       gradientUnits="userSpaceOnUse"
       gradientTransform="matrix(0.26458333,0,0,0.26458333,-12.431687,-41.720568)" />
    <linearGradient
       inkscape:collect="always"
       id="linearGradient3597-5">
      <stop
         style="stop-color:#ffb380;stop-opacity:1"
         offset="0"
         id="stop3612" />
      <stop
         style="stop-color:#552200;stop-opacity:1"
         offset="1"
         id="stop3614" />
    </linearGradient>
    <radialGradient
       inkscape:collect="always"
       xlink:href="#linearGradient3597-5-6"
       id="radialGradient3634"
       cx="383.24597"
       cy="260.37466"
       fx="383.24597"
       fy="260.37466"
       r="47.698257"
       gradientTransform="matrix(0.08252591,0.03441449,-0.05796422,0.13899813,72.433501,-21.721682)"
       gradientUnits="userSpaceOnUse" />
  </defs>
  <sodipodi:namedview
     id="base"
     pagecolor="#ffffff"
     bordercolor="#666666"
     borderopacity="1.0"
     inkscape:pageopacity="0.0"
     inkscape:pageshadow="2"
     inkscape:zoom="0.35"
     inkscape:cx="175.75008"
     inkscape:cy="521.79465"
     inkscape:document-units="mm"
     inkscape:current-layer="layer1"
     inkscape:document-rotation="0"
     showgrid="false"
     fit-margin-top="0"
     fit-margin-left="0"
     fit-margin-right="0"
     fit-margin-bottom="0"
     inkscape:window-width="1252"
     inkscape:window-height="943"
     inkscape:window-x="0"
     inkscape:window-y="25"
     inkscape:window-maximized="0" />
  <metadata
     id="metadata1369">
    <rdf:RDF>
      <cc:Work
         rdf:about="">
        <dc:format>image/svg+xml</dc:format>
        <dc:type
           rdf:resource="http://purl.org/dc/dcmitype/StillImage" />
        <dc:title></dc:title>
      </cc:Work>
    </rdf:RDF>
  </metadata>
  <g
     inkscape:label="Layer 1"
     inkscape:groupmode="layer"
     id="layer1"
     transform="translate(-59.332791,-10.108499)">
    <path
       style="display:inline;fill:#89dc00;fill-opacity:1;stroke:none;stroke-width:0.143851;stroke-miterlimit:4;stroke-dasharray:none"
       d="m 91.764541,41.794165 c -0.685774,-0.234108 -1.316014,-0.748014 -2.282113,-1.860872 -1.969098,-2.26822 -3.155691,-5.455135 -3.510251,-9.427716 -0.209394,-2.346108 -0.01453,-3.527451 0.860332,-5.215556 1.835603,-3.541927 4.175279,-5.241494 7.358216,-5.345084 1.377265,-0.04482 2.049986,0.163288 2.530382,0.782797 0.585174,0.75462 0.626841,1.605243 0.297067,6.064596 -0.25952,3.509336 -0.345001,4.172474 -0.629523,4.883759 -0.301766,0.754382 -0.308491,0.82002 -0.08065,0.78681 0.150273,-0.02191 0.348607,-0.301472 0.501499,-0.706906 0.139105,-0.368869 0.291441,-0.706237 0.338527,-0.749705 0.04708,-0.04347 0.736205,0.02868 1.531379,0.160327 1.881034,0.311422 3.833374,0.181493 6.452714,-0.429435 l 1.92175,-0.448228 0.65747,0.281641 c 1.34383,0.575657 2.90537,2.327966 3.30554,3.709345 0.50595,1.746588 -0.66158,3.832492 -2.47921,4.42935 -1.39888,0.459348 -4.14436,0.80119 -8.82613,1.098941 -4.814247,0.306179 -5.126405,0.373438 -6.234422,1.343287 -0.824069,0.721307 -1.137557,0.838946 -1.712579,0.642649 z"
       id="path1506"
       inkscape:export-filename="../fido-and-kitch/assets/images/tree_1.png"
       inkscape:export-xdpi="96"
       inkscape:export-ydpi="96" />
    <path
       style="display:inline;fill:#89dc00;fill-opacity:1;stroke:none;stroke-width:0.143851;stroke-miterlimit:4;stroke-dasharray:none"
       d="m 75.251811,81.804176 c -3.45602,-0.566343 -5.690661,-1.814568 -7.24653,-4.047762 -0.793671,-1.139183 -1.829935,-3.523745 -2.08823,-4.80526 -0.352866,-1.750729 -0.05388,-4.279897 0.617051,-5.219795 0.505817,-0.708591 2.077392,-1.131676 3.928999,-1.057733 0.820515,0.03277 1.317284,0.149239 2.20255,0.516406 0.628695,0.260755 1.526358,0.551627 1.994805,0.646385 1.040062,0.210386 2.867798,0.155829 2.87745,-0.08589 0.0048,-0.120464 -0.420981,-0.183642 -1.464646,-0.217315 -1.174192,-0.03789 -1.674492,-0.123137 -2.476664,-0.422013 l -1.005237,-0.374534 -0.271468,-1.688798 c -0.63727,-3.964456 0.274222,-7.906716 2.296388,-9.932006 1.774206,-1.776949 6.094963,-3.21524 10.398387,-3.461409 2.884688,-0.165012 5.606457,1.229929 7.742581,3.968168 1.430303,1.833473 2.061096,3.744444 1.798886,5.449697 -0.319855,2.080125 -1.511903,3.898905 -4.596045,7.012459 -2.236295,2.25762 -2.788539,2.927286 -3.094509,3.752484 -0.335391,0.904547 -0.174664,1.524273 0.909397,3.506436 1.305031,2.386195 1.509996,2.983116 1.267061,3.690035 -0.254614,0.740905 -1.063437,1.565683 -1.994509,2.033847 -0.757248,0.380765 -0.845264,0.391515 -2.401969,0.293367 -1.318522,-0.08313 -2.008053,-0.03979 -3.746622,0.23553 -2.477101,0.392271 -4.146219,0.45366 -5.647126,0.207703 z"
       id="path1508"
       inkscape:export-filename="../fido-and-kitch/assets/images/tree_1.png"
       inkscape:export-xdpi="96"
       inkscape:export-ydpi="96" />
    <path
       style="display:inline;fill:#89dc00;fill-opacity:1;stroke:none;stroke-width:0.143851;stroke-miterlimit:4;stroke-dasharray:none"
       d="m 92.570888,81.841069 c -0.156234,-0.04704 -0.927582,-0.333168 -1.714106,-0.635838 -0.786524,-0.302668 -1.558012,-0.555416 -1.714415,-0.561663 -0.458208,-0.01831 -0.474864,-0.16156 -0.08213,-0.706456 0.20351,-0.282355 0.421177,-0.800844 0.483709,-1.152197 0.101013,-0.567566 0.04573,-0.784971 -0.495604,-1.948945 -0.335114,-0.720563 -0.608537,-1.329205 -0.607603,-1.352536 0.0011,-0.02334 0.199089,-0.03454 0.440346,-0.0249 0.241261,0.0096 0.976522,-0.180228 1.633914,-0.421917 2.517706,-0.925632 3.788372,-1.035119 5.255214,-0.452814 2.137326,0.848472 2.89696,2.726032 1.98278,4.900764 -0.669732,1.59322 -1.958483,2.408436 -3.841469,2.429962 -0.581115,0.0066 -1.184402,-0.0264 -1.340636,-0.07345 z"
       id="path1510"
       inkscape:export-filename="../fido-and-kitch/assets/images/tree_1.png"
       inkscape:export-xdpi="96"
       inkscape:export-ydpi="96" />
    <path
       style="display:inline;fill:#89dc00;fill-opacity:1;stroke:none;stroke-width:0.143851;stroke-miterlimit:4;stroke-dasharray:none"
       d="m 67.198606,96.220369 c 0.516085,-0.09779 1.460981,-0.414605 2.099768,-0.70404 1.214291,-0.550201 1.586031,-0.602258 2.393926,-0.335235 0.989137,0.326927 1.525841,-0.575659 1.004885,-1.689931 -0.111123,-0.237681 -0.169953,-0.430866 -0.130734,-0.4293 0.03922,0.0016 0.557808,0.317328 1.152422,0.701694 0.860862,0.556474 1.156933,0.679873 1.453274,0.605718 0.20469,-0.05122 0.566621,-0.06972 0.804294,-0.04111 0.366567,0.04412 0.505169,-0.04329 0.913535,-0.576149 0.391961,-0.51145 1.386972,-1.180796 1.734658,-1.166913 0.04261,0.0016 0.06978,0.195815 0.06037,0.431361 -0.0108,0.27061 0.130302,0.606957 0.383318,0.913677 l 0.400423,0.48541 1.411073,0.04488 c 0.982546,0.03125 1.583828,-0.02156 1.979928,-0.173953 l 0.568848,-0.218834 -0.04459,-1.258017 -0.04459,-1.25802 1.092993,1.239295 c 0.989915,1.122424 1.137881,1.236776 1.568995,1.21257 0.418611,-0.02349 0.553289,-0.144537 1.116976,-1.003819 0.352536,-0.5374 0.704085,-0.995365 0.781225,-1.017698 0.07714,-0.02233 0.165735,0.485698 0.196876,1.128966 0.0616,1.272339 0.237913,1.528326 0.75519,1.09646 0.226435,-0.189045 0.333195,-0.205624 0.457448,-0.07103 0.08914,0.09656 0.504352,0.18923 0.922684,0.205936 0.743191,0.02968 0.760225,0.03988 0.744025,0.445553 -0.01802,0.451398 0.180329,0.597535 0.847201,0.624165 0.229203,0.0092 0.689552,0.09203 1.022995,0.184166 0.333447,0.09214 1.250432,0.234114 2.037744,0.315505 0.924976,0.09562 1.328328,0.183912 1.13995,0.249529 -0.292968,0.102047 -12.635548,0.379828 -18.271278,0.41121 -1.660554,0.0092 -4.925611,-0.02617 -7.255677,-0.07872 -3.989274,-0.08995 -4.181732,-0.105902 -3.29815,-0.273323 z"
       id="path1512"
       inkscape:export-filename="../fido-and-kitch/assets/images/tree_1.png"
       inkscape:export-xdpi="96"
       inkscape:export-ydpi="96" />
    <path
       style="display:inline;fill:#89dc00;fill-opacity:1;stroke:none;stroke-width:0.143851;stroke-miterlimit:4;stroke-dasharray:none"
       d="m 61.805326,43.166617 c -0.775941,-0.206819 -1.272437,-0.522552 -1.750825,-1.113382 -0.541911,-0.669282 -0.465883,-0.906963 0.638871,-1.997284 0.97109,-0.958406 2.16109,-1.600055 3.33202,-1.796635 1.23045,-0.206571 1.718709,-0.139599 2.05681,0.282123 0.269724,0.336431 0.67129,0.514162 0.679807,0.300879 0.0019,-0.04701 -0.1167,-0.269267 -0.263507,-0.493901 -0.146806,-0.224631 -0.224133,-0.447921 -0.171836,-0.496202 0.129654,-0.119698 3.450791,0.03426 5.639049,0.261406 1.531982,0.159025 1.904852,0.24824 2.592641,0.620339 0.441825,0.239033 0.942359,0.594974 1.112295,0.790983 l 0.308975,0.356375 -0.297023,0.502425 c -0.33831,0.572254 -1.510419,1.573673 -2.37947,2.032952 -0.480719,0.254053 -0.861435,0.312309 -2.097032,0.320877 -0.966689,0.0067 -1.719685,0.09093 -2.093566,0.234174 -0.32114,0.123039 -0.780041,0.276421 -1.019786,0.340852 -0.574603,0.154424 -5.597951,0.03779 -6.287423,-0.145981 z"
       id="path1514"
       inkscape:export-filename="../fido-and-kitch/assets/images/tree_1.png"
       inkscape:export-xdpi="96"
       inkscape:export-ydpi="96" />
    <path
       style="display:inline;fill:#89dc00;fill-opacity:1;stroke:none;stroke-width:0.143851;stroke-miterlimit:4;stroke-dasharray:none"
       d="M 82.154083,18.745457 C 80.625448,17.982351 79.37359,17.099439 78.813126,16.389141 l -0.465587,-0.590055 -0.360947,0.359373 -0.360948,0.359375 -0.252851,-0.30286 c -0.351407,-0.420905 -0.604454,-0.390007 -0.834941,0.101954 l -0.196866,0.420198 -0.459729,-0.32019 C 75.247384,15.975457 75.017869,15.402071 74.97326,14.148533 l -0.03811,-1.07093 0.879313,-0.787612 c 1.33417,-1.195033 2.823488,-1.708277 5.168189,-1.781042 1.497954,-0.04649 1.730007,0.06706 2.189548,1.071427 0.272804,0.596233 0.31904,0.867167 0.227576,1.333513 -0.415943,2.120728 -0.325929,3.80623 0.251966,4.71795 0.251743,0.397168 0.323458,0.682527 0.273669,1.088972 -0.0897,0.732271 -0.346663,0.735846 -1.771325,0.02463 z"
       id="path1516"
       inkscape:export-filename="../fido-and-kitch/assets/images/tree_1.png"
       inkscape:export-xdpi="96"
       inkscape:export-ydpi="96" />
    <path
       style="display:inline;opacity:0.987138;fill:#689f00;fill-opacity:1;stroke:none;stroke-width:0.543688;stroke-miterlimit:4;stroke-dasharray:none;filter:url(#filter4155)"
       d="m 444.38203,304.95832 c 1.08072,-0.67295 2.90126,-2.27743 4.04563,-3.56552 1.33039,-1.49745 3.23574,-2.82633 5.28383,-3.68517 1.76173,-0.73876 3.52406,-1.72708 3.91629,-2.19628 1.08976,-1.30359 1.13443,-7.57358 0.0726,-10.1828 -1.73665,-4.26724 -6.93888,-7.8894 -13.76892,-9.58688 l -3.30291,-0.82087 5.57537,-1.25146 5.57537,-1.25147 2.96457,1.55138 c 1.65089,0.86392 4.41243,3.08905 6.23193,5.0214 5.71103,6.06526 7.08757,11.87987 4.14389,17.50416 -2.74588,5.24635 -6.47334,7.34442 -15.71115,8.8433 -7.03102,1.14081 -7.42112,1.11134 -5.02645,-0.37979 z"
       id="path1518"
       transform="matrix(0.26458333,0,0,0.26458333,-12.431687,-41.720568)"
       inkscape:export-filename="../fido-and-kitch/assets/images/tree_1.png"
       inkscape:export-xdpi="96"
       inkscape:export-ydpi="96" />
    <path
       style="display:inline;fill:#689f00;fill-opacity:1;stroke:none;stroke-width:0.543688;stroke-miterlimit:4;stroke-dasharray:none;filter:url(#filter3999)"
       d="m 377.66143,424.00892 c 0.0365,-0.91529 3.282,-6.10631 8.18403,-13.09017 9.03552,-12.87279 11.86842,-19.53616 11.81206,-27.78362 -0.0269,-3.93835 -0.30184,-5.28445 -1.79256,-8.77669 -1.9842,-4.64829 -6.39192,-10.18881 -10.50355,-13.20299 -1.45301,-1.06519 -4.84761,-2.77075 -7.54356,-3.79013 -2.69595,-1.01938 -5.3147,-2.34806 -5.81943,-2.95262 -0.89607,-1.07328 -0.86725,-1.09718 1.22201,-1.01375 10.4971,0.4192 23.2512,10.51077 28.74616,22.74513 1.74207,3.87866 2.06235,5.20719 2.12712,8.82336 0.16038,8.95318 -3.74193,15.73815 -16.86135,29.31696 -2.93058,3.0332 -6.28639,6.54912 -7.45736,7.81314 -1.17096,1.26404 -2.12207,2.12416 -2.11357,1.91138 z"
       id="path1520"
       transform="matrix(0.26458333,0,0,0.26458333,-12.431687,-41.720568)"
       inkscape:export-filename="../fido-and-kitch/assets/images/tree_1.png"
       inkscape:export-xdpi="96"
       inkscape:export-ydpi="96" />
    <path
       style="display:inline;fill:#689f00;fill-opacity:1;stroke:none;stroke-width:0.543688;stroke-miterlimit:4;stroke-dasharray:none;filter:url(#filter4207)"
       d="m 305.26248,319.85475 c 3.58404,-4.36883 5.55723,-5.36881 11.27835,-5.7157 3.55832,-0.21574 4.57411,-0.49446 5.74641,-1.57672 1.19638,-1.1045 1.35074,-1.54972 0.96558,-2.78521 -0.7723,-2.47736 -2.71493,-3.58648 -7.16801,-4.09246 -4.01875,-0.45663 -9.26501,-2.0867 -11.78218,-3.66085 -1.19398,-0.74667 -0.54695,-0.79783 6.53983,-0.51705 12.87491,0.5101 17.22179,1.61312 21.40984,5.43273 l 1.61234,1.47049 -1.18348,1.83441 c -1.38472,2.14636 -5.46567,5.5794 -8.62408,7.2549 -1.70071,0.9022 -3.62109,1.25131 -8.20858,1.49225 -3.29367,0.17299 -7.07161,0.64995 -8.39543,1.0599 -3.01756,0.93447 -3.11164,0.92602 -2.19059,-0.19669 z"
       id="path1522"
       transform="matrix(0.26458333,0,0,0.26458333,-12.431687,-41.720568)"
       inkscape:export-filename="../fido-and-kitch/assets/images/tree_1.png"
       inkscape:export-xdpi="96"
       inkscape:export-ydpi="96" />
    <path
       style="display:inline;fill:#689f00;fill-opacity:1;stroke:none;stroke-width:0.543688;stroke-miterlimit:4;stroke-dasharray:none;filter:url(#filter4251)"
       d="m 357.26706,228.05853 c -2.17897,-1.13623 -4.05402,-2.1658 -4.16678,-2.28794 -0.11275,-0.12213 0.3155,-0.89278 0.95167,-1.71255 2.60776,-3.36039 3.73774,-12.16281 2.86755,-22.3379 -0.3685,-4.30885 1.54201,-4.83462 3.70779,-1.02037 1.0766,1.89603 1.12882,2.61735 0.7949,10.97897 -0.3498,8.75944 -0.3275,9.01233 1.04988,11.90142 1.65656,3.47469 1.58884,6.32734 -0.15337,6.46078 -0.59943,0.0459 -2.87266,-0.84618 -5.05164,-1.98241 z"
       id="path1524"
       transform="matrix(0.26458333,0,0,0.26458333,-12.431687,-41.720568)"
       inkscape:export-filename="../fido-and-kitch/assets/images/tree_1.png"
       inkscape:export-xdpi="96"
       inkscape:export-ydpi="96" />
    <path
       style="display:inline;fill:#689f00;fill-opacity:1;stroke:none;stroke-width:0.135922;stroke-miterlimit:4;stroke-dasharray:none;filter:url(#filter3987)"
       d="m 362.25943,463.8542 c 0.77302,-0.67878 1.76126,-1.3767 2.56493,-1.81143 0.71907,-0.38897 2.27557,-1.22937 3.45889,-1.86756 4.61073,-2.48668 9.31711,-6.25163 10.51961,-8.41532 0.26375,-0.47458 0.32305,-0.75793 0.311,-1.48621 -0.0193,-1.16494 -0.44726,-2.10562 -2.83558,-6.2321 -3.38087,-5.8414 -3.50181,-6.44306 -1.74212,-8.66671 l 0.50006,-0.63191 0.40439,1.1126 c 0.51561,1.4186 1.31479,3.05246 3.34819,6.84511 4.16306,7.76483 5.02447,9.85318 4.9471,11.99357 -0.12277,3.39683 -3.87604,7.57145 -8.80156,9.78964 -1.84975,0.83303 -2.15612,0.85693 -8.39117,0.65447 l -5.54128,-0.17993 z"
       id="path1526"
       transform="matrix(0.26458333,0,0,0.26458333,-12.431687,-41.720568)"
       inkscape:export-filename="../fido-and-kitch/assets/images/tree_1.png"
       inkscape:export-xdpi="96"
       inkscape:export-ydpi="96" />
    <path
       style="display:inline;fill:#689f00;fill-opacity:1;stroke:none;stroke-width:0.135922;stroke-miterlimit:4;stroke-dasharray:none;filter:url(#filter3951)"
       d="m 397.68491,467.04192 c -0.62453,-0.0899 -2.30755,-0.64355 -4.96004,-1.63183 -2.20811,-0.8227 -4.06245,-1.54001 -4.12074,-1.594 -0.17716,-0.1641 3.01938,-2.03984 4.34484,-2.54957 0.68356,-0.26287 2.74118,-0.84035 4.57248,-1.28328 1.83131,-0.44293 3.89834,-1.02463 4.5934,-1.29266 3.2294,-1.24535 5.69514,-3.45528 6.64835,-5.95861 0.9512,-2.49803 0.91298,-5.08622 -0.10906,-7.38659 -0.80042,-1.80155 -2.0337,-3.03876 -6.57959,-6.60055 l -0.65848,-0.51594 1.96324,0.15252 c 2.32941,0.18096 4.17753,0.6433 6.20512,1.55231 3.54812,1.59069 5.8694,3.77231 7.17473,6.74307 0.91461,2.08155 1.04803,2.87756 0.92815,5.53763 -0.092,2.04132 -0.1424,2.37188 -0.57643,3.77984 -2.05841,6.67733 -6.46564,10.39094 -13.13705,11.06952 -1.71459,0.1744 -5.00409,0.16297 -6.28892,-0.0219 z"
       id="path1528"
       transform="matrix(0.26458333,0,0,0.26458333,-12.431687,-41.720568)"
       inkscape:export-filename="../fido-and-kitch/assets/images/tree_1.png"
       inkscape:export-xdpi="96"
       inkscape:export-ydpi="96" />
    <path
       style="display:inline;fill:#689f00;fill-opacity:1;stroke:none;stroke-width:0.135922;stroke-miterlimit:4;stroke-dasharray:none;filter:url(#filter4335)"
       d="m 365.26886,522.05434 c 1.73971,-0.42501 11.19949,-2.40827 13.42238,-2.81403 2.61707,-0.47771 3.33153,-0.73172 3.58164,-1.27334 0.38671,-0.83741 0.0457,-1.29254 -3.15868,-4.21627 -1.44146,-1.31519 -2.8417,-2.60717 -3.11164,-2.87107 l -0.4908,-0.47981 1.19062,-1.7398 c 1.2717,-1.8583 2.3243,-3.18304 2.52284,-3.17511 0.20687,0.008 0.47995,1.74415 0.66654,4.23693 0.26343,3.5195 0.53478,4.54236 1.26164,4.75596 0.41096,0.12077 1.00545,-0.12358 1.81115,-0.74441 0.66266,-0.51062 1.16636,-0.57967 1.542,-0.21141 0.34727,0.34044 1.635,0.65429 2.94086,0.71675 1.57302,0.0752 2.94235,0.29617 3.13606,0.50599 0.0884,0.0958 0.17706,0.66122 0.19697,1.25654 0.0299,0.89339 0.0912,1.14615 0.3514,1.44754 0.50401,0.58389 0.70124,0.64632 2.92524,0.92596 1.1608,0.14595 2.73411,0.41595 3.49626,0.59998 1.82855,0.44155 3.96111,0.78177 8.01268,1.2783 3.46681,0.42486 4.12667,0.53692 4.22892,0.71816 0.0817,0.1448 -0.62907,0.19907 -4.63485,0.35389 -6.67268,0.2579 -33.72847,0.90376 -39.28839,0.93787 l -1.49434,0.009 z"
       id="path1530"
       transform="matrix(0.26458333,0,0,0.26458333,-12.431687,-41.720568)"
       inkscape:export-filename="../fido-and-kitch/assets/images/tree_1.png"
       inkscape:export-xdpi="96"
       inkscape:export-ydpi="96" />
    <path
       style="display:inline;fill:#bd7f6d;fill-opacity:1;stroke-width:0.0179813"
       d="m 75.869589,53.190275 c -0.655923,-0.902957 -1.211154,-1.566357 -2.071457,-2.475016 -0.600803,-0.634574 -0.66601,-0.731576 -0.663758,-0.98742 0.0021,-0.226967 0.09396,-0.417303 0.522759,-1.081886 0.122713,-0.190199 0.248623,-0.400249 0.279796,-0.466781 0.07183,-0.153299 0.08585,-0.308464 0.03899,-0.431437 -0.06052,-0.158824 -0.278072,-0.326848 -0.541637,-0.418336 -0.294963,-0.102385 -0.556612,-0.120491 -1.162425,-0.08044 -0.246587,0.0163 -0.618721,0.02973 -0.826964,0.02985 -0.5267,2.64e-4 -0.685747,-0.02913 -0.814099,-0.150583 -0.211785,-0.200398 -0.527076,-0.856953 -1.532011,-3.190247 -0.108445,-0.251794 -0.200946,-0.467035 -0.205555,-0.47832 -0.0083,-0.02035 0.502864,-0.234026 0.58356,-0.243953 0.03483,-0.0043 0.08912,0.09265 0.484862,0.865896 0.742045,1.44988 0.941676,1.79982 1.142767,2.003195 0.141422,0.143031 0.250687,0.202599 0.456253,0.248738 0.07321,0.01643 0.541779,0.07787 1.041278,0.136543 1.920759,0.225602 2.410225,0.301704 2.622698,0.407786 0.238734,0.119193 0.234844,0.178713 -0.159869,2.446034 -0.104735,0.601628 -0.133678,0.857109 -0.122031,1.077185 0.02944,0.556326 0.246502,0.866973 1.425488,2.040114 l 0.651983,0.648753 -0.449477,0.223393 -0.449476,0.223393 z"
       id="path1011"
       inkscape:export-filename="../fido-and-kitch/assets/images/tree_1.png"
       inkscape:export-xdpi="96"
       inkscape:export-ydpi="96" />
    <path
       style="display:inline;fill:#bd7f6d;fill-opacity:1;stroke-width:0.0179813"
       d="m 89.253201,52.13419 c -0.177734,-0.09054 -0.393817,-0.192352 -0.480179,-0.22625 -0.08636,-0.0339 -0.156885,-0.06568 -0.156716,-0.07062 1.7e-4,-0.0049 0.05063,-0.04233 0.112141,-0.08309 0.508114,-0.336727 1.181576,-1.19925 1.565868,-2.005449 0.304297,-0.638384 0.479552,-1.248637 0.575731,-2.004761 0.04495,-0.353359 0.05293,-1.364961 0.01855,-2.351852 -0.03317,-0.952214 -0.05748,-1.898507 -0.07533,-2.932242 l -0.01236,-0.715036 0.119425,0.0731 c 0.449778,0.275294 0.884486,0.41261 1.32924,0.419878 l 0.216681,0.0035 0.04925,0.637337 c 0.02709,0.350533 0.07751,0.948369 0.112043,1.328525 0.09398,1.034429 0.104826,1.231437 0.0947,1.720152 -0.0145,0.699992 -0.09821,1.09411 -0.408676,1.924322 -0.162885,0.435576 -0.595849,1.530221 -0.699442,1.768377 -0.270994,0.623002 -0.584028,1.146953 -0.94389,1.57987 -0.177165,0.213132 -1.056489,1.107681 -1.082715,1.101463 -0.0061,-0.0013 -0.156596,-0.07672 -0.334333,-0.167264 z"
       id="path1013"
       inkscape:export-filename="../fido-and-kitch/assets/images/tree_1.png"
       inkscape:export-xdpi="96"
       inkscape:export-ydpi="96" />
    <path
       style="display:inline;fill:#bd7f6d;fill-opacity:1;stroke-width:0.0359627"
       d="m 80.125269,94.122205 c -0.615643,-0.139287 -0.985928,-0.431046 -1.075169,-0.847156 -0.03049,-0.142193 -0.02643,-0.236675 0.01966,-0.455986 0.07249,-0.345075 0.07087,-0.462865 -0.0076,-0.549534 -0.189834,-0.209764 -1.103072,0.07022 -1.80331,0.552863 -0.281721,0.194177 -0.522616,0.452543 -0.83452,0.895035 -0.107519,0.152535 -0.21639,0.285599 -0.241938,0.295698 -0.02553,0.01011 -0.11077,-0.02421 -0.189388,-0.07623 -0.0863,-0.05711 -0.211725,-0.101203 -0.316524,-0.111274 -0.151122,-0.01452 -0.209616,0.0024 -0.452107,0.130064 -0.230635,0.12151 -0.291698,0.140129 -0.35515,0.108286 -0.15326,-0.07692 -0.630423,-0.409109 -0.622922,-0.433668 0.0042,-0.01386 0.227486,-0.288557 0.496112,-0.610404 1.25067,-1.498462 2.425473,-3.309847 3.369887,-5.195895 0.82677,-1.651109 1.381734,-3.140872 1.851872,-4.97123 0.105817,-0.411972 0.197331,-0.753287 0.203369,-0.758478 0.01572,-0.01352 1.943852,-0.341652 2.007603,-0.341652 0.04642,0 0.04757,0.05996 0.0092,0.475758 -0.145317,1.572337 -0.08285,2.693411 0.220578,3.958651 0.365469,1.523945 1.050237,2.963201 2.087412,4.387361 0.776004,1.06554 1.454613,1.750734 2.127962,2.148601 l 0.18407,0.108763 -0.236794,0.348244 c -0.477549,0.70231 -0.596783,0.704459 -1.260351,0.0227 -0.161245,-0.165669 -0.522644,-0.56782 -0.803108,-0.893668 -0.861819,-1.001278 -1.064188,-1.180372 -1.274201,-1.127662 -0.22819,0.05727 -0.255011,0.26955 -0.195901,1.550493 0.03539,0.766829 0.03626,1.015794 0.0038,1.076507 -0.05207,0.09729 -0.377452,0.200885 -0.884368,0.281562 -0.512516,0.08157 -1.724919,0.100854 -2.0281,0.03226 z"
       id="path1015"
       inkscape:export-filename="../fido-and-kitch/assets/images/tree_1.png"
       inkscape:export-xdpi="96"
       inkscape:export-ydpi="96" />
    <path
       style="display:inline;fill:#8b6767;fill-opacity:1;stroke-width:0.135922;filter:url(#filter4319)"
       d="m 357.37968,512.77727 c -0.0411,-0.24258 -0.44824,-2.36471 -0.90467,-4.71586 -2.71581,-13.98973 -3.68108,-22.90515 -3.4896,-32.2307 0.0709,-3.45288 0.44852,-8.20607 0.66949,-8.42705 0.0948,-0.0948 3.88412,-0.65846 3.95433,-0.58824 0.0356,0.0356 -0.0288,1.19317 -0.14321,2.57228 -0.2536,3.05679 -0.17716,8.02657 0.1565,10.17498 1.20202,7.73971 4.08003,14.38517 9.15124,21.1306 2.9414,3.91248 5.08272,5.98337 8.1317,7.86423 0.0859,0.053 -1.39173,2.12382 -1.89295,2.65296 -0.62246,0.65712 -1.19632,0.69375 -1.96842,0.12562 -0.70838,-0.52124 -2.43609,-2.32822 -4.77115,-4.99007 -3.51437,-4.00621 -4.121,-4.48375 -5.05844,-3.98205 -0.50992,0.2729 -0.57494,1.04331 -0.47126,5.5845 l 0.0981,4.29759 -0.41681,0.21554 c -0.38016,0.19658 -2.45685,0.75351 -2.81817,0.75577 -0.0835,5.4e-4 -0.18554,-0.19752 -0.22669,-0.4401 z"
       id="path1017"
       transform="matrix(0.26458333,0,0,0.26458333,-12.431687,-41.720568)"
       inkscape:export-filename="../fido-and-kitch/assets/images/tree_1.png"
       inkscape:export-xdpi="96"
       inkscape:export-ydpi="96" />
    <path
       style="display:inline;fill:#8b6767;fill-opacity:1;stroke-width:0.0127147"
       d="m 76.656007,53.089958 c -1.186304,-1.360334 -1.556967,-1.804527 -1.742413,-2.088065 -0.172167,-0.263237 -0.174369,-0.305033 -0.06705,-1.272646 0.154646,-1.394349 0.185322,-1.751645 0.17517,-2.040223 -0.0079,-0.225603 -0.02516,-0.305737 -0.09499,-0.441598 -0.06581,-0.128074 -0.254386,-0.312367 -0.459904,-0.449463 l -0.158684,-0.105858 0.07617,0.0089 c 0.04189,0.0049 0.176139,0.02572 0.298326,0.04631 0.423095,0.07135 0.602096,0.136419 0.659937,0.239906 0.0299,0.0535 0.03186,0.06802 0.03088,0.228505 -0.0016,0.242128 -0.04412,0.538665 -0.241909,1.682054 -0.145227,0.839523 -0.182573,1.096391 -0.191241,1.315363 -0.01566,0.395507 0.05158,0.643572 0.255932,0.9443 0.199356,0.29337 0.403402,0.517692 1.189749,1.30797 l 0.619361,0.622457 -0.120558,0.05988 c -0.0663,0.03294 -0.121907,0.05979 -0.12356,0.05967 -0.0016,-1.27e-4 -0.049,-0.05296 -0.10522,-0.117425 z"
       id="path1027"
       inkscape:export-filename="../fido-and-kitch/assets/images/tree_1.png"
       inkscape:export-xdpi="96"
       inkscape:export-ydpi="96" />
    <path
       style="display:inline;fill:#8b6767;fill-opacity:1;stroke-width:0.0719254"
       d="m 90.185881,51.587611 c -0.0011,-0.0269 0.192548,-0.392102 0.430167,-0.811553 0.84477,-1.4912 1.344184,-2.813717 1.546686,-4.09583 0.08848,-0.560215 0.03848,-2.484202 -0.09563,-3.679412 l -0.0823,-0.733467 0.209519,-0.008 c 0.208997,-0.008 0.209698,-0.0066 0.283043,0.546132 0.04044,0.304776 0.104759,1.280578 0.142928,2.168443 0.06774,1.575805 0.06533,1.627314 -0.10128,2.159814 -0.298469,0.953945 -1.084268,2.835003 -1.39745,3.345236 -0.275659,0.449101 -0.931201,1.225822 -0.93568,1.108646 z"
       id="path1029"
       inkscape:export-filename="../fido-and-kitch/assets/images/tree_1.png"
       inkscape:export-xdpi="96"
       inkscape:export-ydpi="96" />
    <path
       style="display:inline;fill:#cbee88;fill-opacity:1;stroke:none;stroke-width:0.264583px;stroke-linecap:butt;stroke-linejoin:miter;stroke-opacity:1;filter:url(#filter3791)"
       d="m 63.25258,39.068363 c 0.293283,-0.227585 0.939594,-0.419084 1.40644,-0.406977 0.466845,0.01211 0.754087,0.227538 0.843685,0.412971 0.0896,0.185433 -0.01812,0.341023 -0.209443,0.364995 -0.191324,0.02397 -0.4666,-0.08374 -0.849692,-0.04194 -0.383092,0.0418 -0.873798,0.233298 -1.149115,0.197571 -0.275316,-0.03573 -0.335158,-0.299034 -0.04187,-0.526618 z"
       id="path3665"
       inkscape:path-effect="#path-effect3667"
       inkscape:original-d="m 62.899383,39.032328 c 0.646573,-0.191235 1.292884,-0.382736 1.93893,-0.574498 0.287521,0.215705 0.574763,0.431136 0.861748,0.646309 -0.107457,0.15586 -0.215172,0.311451 -0.323156,0.46678 -0.275022,-0.107455 -0.550297,-0.215172 -0.825842,-0.323154 -0.49046,0.191767 -0.981167,0.383262 -1.472149,0.574498 -0.05958,-0.263054 -0.119423,-0.52636 -0.179531,-0.789935 z"
       inkscape:export-filename="../fido-and-kitch/assets/images/tree_1.png"
       inkscape:export-xdpi="96"
       inkscape:export-ydpi="96" />
    <path
       style="display:inline;fill:#cbee88;fill-opacity:1;stroke:none;stroke-width:0.264583px;stroke-linecap:butt;stroke-linejoin:miter;stroke-opacity:1;filter:url(#filter3827)"
       d="m 76.056121,15.998675 c -0.110575,-0.107588 -0.331997,-0.323026 -0.46976,-0.768855 -0.137763,-0.44583 -0.191621,-1.122051 0.0059,-1.690709 0.197475,-0.568657 0.646292,-1.029443 1.241813,-1.409482 0.595521,-0.38004 1.337566,-0.679252 1.76251,-0.765854 0.424944,-0.0866 0.532659,0.03906 0.505586,0.227466 -0.02707,0.188402 -0.188648,0.439741 -0.50275,0.67008 -0.314102,0.23034 -0.780872,0.439787 -1.178886,0.688159 -0.398014,0.248373 -0.727148,0.535617 -0.906695,0.92773 -0.179547,0.392112 -0.209466,0.888804 -0.242387,1.277779 -0.03292,0.388974 -0.06883,0.670235 -0.08676,0.810754 -0.01794,0.140519 -0.01794,0.140519 -0.12852,0.03293 z"
       id="path3795"
       inkscape:path-effect="#path-effect3797"
       inkscape:original-d="m 76.166697,16.106262 c -0.221154,-0.215172 -0.442576,-0.430609 -0.664262,-0.646311 -0.05359,-0.675981 -0.107453,-1.352201 -0.161576,-2.028698 0.449098,-0.460539 0.897916,-0.921324 1.346478,-1.382384 0.742341,-0.298961 1.484386,-0.598173 2.22618,-0.897655 0.107987,0.125939 0.215701,0.251608 0.323157,0.377015 -0.161317,0.251611 -0.322892,0.50295 -0.484733,0.754029 -0.466526,0.209722 -0.933296,0.419168 -1.400339,0.628356 -0.328882,0.28752 -0.658016,0.574765 -0.98742,0.861748 -0.02966,0.496977 -0.05958,0.993669 -0.08976,1.490104 -0.03564,0.281535 -0.07155,0.562795 -0.10772,0.843796 z"
       inkscape:export-filename="../fido-and-kitch/assets/images/tree_1.png"
       inkscape:export-xdpi="96"
       inkscape:export-ydpi="96" />
    <path
       style="display:inline;fill:none;stroke:#105d0b;stroke-width:0.264583px;stroke-linecap:butt;stroke-linejoin:miter;stroke-opacity:1"
       d="m 77.439306,67.745582 c -0.982021,0.0388 -1.964292,0.0776 -2.825484,-0.09363 -0.861193,-0.171229 -1.601344,-0.552653 -2.23284,-0.822765 -0.631497,-0.270112 -1.154305,-0.428831 -2.051491,-0.431368 -0.897187,-0.0025 -2.168605,0.15123 -2.96814,0.463153 -0.799536,0.311923 -1.126882,0.781895 -1.380657,1.464449 -0.253775,0.682555 -0.43396,1.577504 -0.46292,2.567468 -0.02896,0.989964 0.09323,2.074794 0.501048,3.340898 0.407818,1.266104 1.101115,2.713373 1.958798,3.874875 0.857683,1.161503 1.879566,2.037252 3.040198,2.643792 1.160632,0.606541 2.459915,0.944004 3.726715,1.17102 1.266799,0.227016 2.501065,0.343627 3.899105,0.216748 1.398039,-0.126878 2.959857,-0.49716 4.027751,-0.611034 1.067893,-0.113874 1.64168,0.02854 2.190905,0.102911 0.549225,0.07437 1.073888,0.08077 1.659889,-0.08985 0.586001,-0.170624 1.233473,-0.518202 1.755606,-1.00268 0.522134,-0.484478 0.91904,-1.105951 1.052647,-1.645885 0.133607,-0.539934 0.0038,-0.998556 -0.326016,-1.713546 -0.329797,-0.71499 -0.859625,-1.686301 -1.282431,-2.410885 -0.422805,-0.724584 -0.7386,-1.202401 -0.816433,-1.770485 -0.07783,-0.568084 0.08254,-1.226294 0.642339,-2.015172 0.5598,-0.788877 1.518929,-1.708177 2.555491,-2.728128 1.036563,-1.019952 2.1505,-2.140495 2.97681,-3.272981 0.826311,-1.132487 1.365013,-2.276976 1.607464,-3.416561 0.242452,-1.139585 0.18858,-2.274365 -0.195453,-3.396265 -0.384033,-1.121901 -1.098382,-2.230881 -2.05854,-3.309068 -0.960158,-1.078187 -2.166147,-2.125453 -3.512942,-2.734448 -1.346795,-0.608995 -2.834312,-0.779477 -4.689736,-0.632857 -1.855424,0.146619 -4.078548,0.610401 -5.872054,1.231784 -1.793507,0.621384 -3.157183,1.400335 -4.083387,2.387873 -0.926204,0.987538 -1.414749,2.183416 -1.793596,3.406092 -0.378848,1.222676 -0.64799,2.472006 -0.639369,3.851773 0.0086,1.379768 0.2949,2.889788 0.581126,4.399529"
       id="path1388"
       inkscape:original-d="m 77.439306,67.745582 c -0.982009,0.0391 -1.96428,0.0779 -2.946818,0.11642 -0.739912,-0.38117 -1.48006,-0.7626 -2.220486,-1.14429 -0.522566,-0.15847 -1.045374,-0.31719 -1.568458,-0.47617 -1.271204,0.15404 -2.542622,0.30781 -3.814329,0.46131 -0.327096,0.47026 -0.654444,0.94023 -0.982064,1.40995 -0.179927,0.89524 -0.360111,1.79019 -0.540565,2.68489 0.12246,1.08514 0.244649,2.16997 0.366577,3.25456 0.69359,1.44759 1.386885,2.89486 2.079932,4.34189 1.022189,0.87605 2.044071,1.7518 3.065709,2.6273 1.299599,0.33774 2.598883,0.6752 3.897926,1.01241 1.23458,0.11688 2.468846,0.23349 3.702873,0.34984 1.562148,-0.37003 3.123967,-0.74031 4.685554,-1.11087 0.574077,0.14269 1.147865,0.2851 1.721403,0.42725 0.524952,0.007 1.049618,0.0131 1.57403,0.0192 0.647763,-0.34733 1.295233,-0.69491 1.942463,-1.04276 0.39718,-0.62122 0.79409,-1.24269 1.19073,-1.86444 -0.12956,-0.45837 -0.25939,-0.91699 -0.38948,-1.37588 -0.52959,-0.97109 -1.05942,-1.9424 -1.58952,-2.914 -0.315538,-0.47756 -0.631329,-0.95538 -0.947392,-1.43346 0.160641,-0.65797 0.321013,-1.31618 0.481123,-1.97466 0.959439,-0.91908 1.918569,-1.83838 2.877459,-2.75797 1.11424,-1.12032 2.22818,-2.24086 3.34187,-3.36169 0.53898,-1.14426 1.07768,-2.28875 1.61613,-3.43352 -0.0536,-1.13456 -0.10748,-2.26934 -0.16162,-3.404413 -0.71411,-1.10876 -1.42846,-2.21774 -2.14309,-3.327008 -1.20577,-1.047044 -2.41176,-2.094309 -3.61804,-3.141861 -1.48732,-0.170225 -2.974836,-0.340709 -4.462646,-0.511458 -2.222948,0.464063 -4.446072,0.927846 -6.669503,1.391372 -1.363467,0.779248 -2.727143,1.5582 -4.091112,2.336903 -0.488299,1.19619 -0.976844,2.392067 -1.465662,3.587705 -0.268888,1.24965 -0.53803,2.49898 -0.807442,3.74807 0.286554,1.51034 0.572831,3.02036 0.858851,4.53014"
       inkscape:path-effect="#path-effect1390"
       inkscape:export-filename="../fido-and-kitch/assets/images/tree_1.png"
       inkscape:export-xdpi="96"
       inkscape:export-ydpi="96" />
    <path
       style="display:inline;fill:none;stroke:#105d0b;stroke-width:0.264583px;stroke-linecap:butt;stroke-linejoin:miter;stroke-opacity:1"
       d="m 87.863393,74.956882 c 0.362143,0.173839 0.723974,0.347527 1.164394,0.314704 0.440419,-0.03282 0.959617,-0.271938 1.673855,-0.538304 0.714239,-0.266365 1.62342,-0.559964 2.437487,-0.68119 0.814068,-0.121226 1.532861,-0.07014 2.300243,0.163579 0.767381,0.233723 1.583272,0.649921 2.13401,1.287276 0.550739,0.637356 0.836498,1.495659 0.804373,2.388121 -0.03212,0.892462 -0.381971,1.819193 -0.783171,2.449 -0.4012,0.629807 -0.853838,0.962839 -1.339512,1.231979 -0.485673,0.269141 -1.004456,0.474403 -1.720566,0.554574 -0.716109,0.08017 -1.62963,0.03518 -2.376179,-0.168506 -0.74655,-0.203684 -1.326121,-0.566222 -1.957928,-0.810982 -0.631807,-0.244759 -1.315817,-0.37159 -2.000146,-0.498481"
       id="path1392"
       inkscape:original-d="m 87.863393,74.956882 c 0.36209,0.17395 0.72392,0.34764 1.08548,0.52106 0.51948,-0.23886 1.03868,-0.47797 1.55762,-0.71736 0.90949,-0.29335 1.81867,-0.58695 2.72762,-0.88082 0.71907,0.0513 1.43786,0.10243 2.15639,0.15325 0.8162,0.41648 1.63209,0.83268 2.44774,1.24863 0.28603,0.85861 0.5718,1.71691 0.8573,2.57498 -0.34959,0.92703 -0.69944,1.85376 -1.04956,2.78025 -0.45238,0.3333 -0.90502,0.66633 -1.35792,0.9991 -0.51854,0.20553 -1.03732,0.4108 -1.55638,0.6158 -0.9133,-0.0447 -1.82682,-0.0897 -2.74062,-0.13498 -0.57933,-0.36229 -1.1589,-0.72483 -1.73875,-1.08764 -0.68376,-0.12657 -1.36777,-0.2534 -2.05206,-0.3805"
       inkscape:path-effect="#path-effect1394"
       inkscape:export-filename="../fido-and-kitch/assets/images/tree_1.png"
       inkscape:export-xdpi="96"
       inkscape:export-ydpi="96" />
    <path
       style="display:inline;fill:none;stroke:#583232;stroke-width:0.264583px;stroke-linecap:butt;stroke-linejoin:miter;stroke-opacity:1"
       d="m 82.406305,81.498202 c -0.10948,1.072171 -0.218937,2.144121 -0.0945,3.32074 0.124441,1.176619 0.482653,2.457789 1.088358,3.678925 0.605705,1.221137 1.458728,2.38218 2.09337,3.079187 0.634642,0.697007 1.050764,0.930058 1.466581,1.162938"
       id="path1396"
       inkscape:original-d="m 82.406305,81.498202 c -0.109193,1.0722 -0.218649,2.14415 -0.328369,3.21582 0.358489,1.28149 0.716701,2.56266 1.074656,3.84359 0.853323,1.16136 1.70635,2.3224 2.559129,3.48321 0.416407,0.23333 0.83253,0.46638 1.248397,0.69917"
       inkscape:path-effect="#path-effect1398"
       inkscape:export-filename="../fido-and-kitch/assets/images/tree_1.png"
       inkscape:export-xdpi="96"
       inkscape:export-ydpi="96" />
    <path
       style="display:inline;fill:none;stroke:#583232;stroke-width:0.264583px;stroke-linecap:butt;stroke-linejoin:miter;stroke-opacity:1"
       d="m 80.0289,81.983292 c -0.203663,0.832124 -0.407281,1.664064 -0.747402,2.665332 -0.340122,1.001268 -0.816722,2.171878 -1.438317,3.376092 -0.621596,1.204214 -1.388156,2.442026 -2.044404,3.376575 -0.656247,0.934549 -1.202181,1.565846 -1.748095,2.197121"
       id="path1400"
       inkscape:original-d="m 80.0289,81.983292 c -0.203354,0.8322 -0.406972,1.66414 -0.610854,2.49582 -0.476351,1.17091 -0.95295,2.34152 -1.429822,3.51188 -0.766329,1.23813 -1.532893,2.47594 -2.299734,3.71352 -0.54568,0.63157 -1.091611,1.26287 -1.637808,1.8939"
       inkscape:path-effect="#path-effect1402"
       sodipodi:nodetypes="ccccc"
       inkscape:export-filename="../fido-and-kitch/assets/images/tree_1.png"
       inkscape:export-xdpi="96"
       inkscape:export-ydpi="96" />
    <path
       style="display:inline;fill:none;stroke:#105d0b;stroke-width:0.264583px;stroke-linecap:butt;stroke-linejoin:miter;stroke-opacity:1"
       d="m 61.085879,96.509692 c 2.044398,-0.114417 4.088548,-0.228821 5.41045,-0.399518 1.321901,-0.170697 1.921637,-0.39764 2.424589,-0.644517 0.502952,-0.246876 0.909184,-0.51369 1.369508,-0.609445 0.460324,-0.09575 0.974483,-0.02054 1.297526,0.07426 0.323044,0.09479 0.454978,0.208961 0.677409,0.131059 0.222431,-0.0779 0.535613,-0.347602 0.473738,-0.806599 -0.06188,-0.458997 -0.498979,-1.107587 -0.633286,-1.416693 -0.134306,-0.309106 0.03408,-0.278475 0.479569,-0.03596 0.445491,0.242513 1.168034,0.696747 1.611526,1.002658 0.443492,0.305911 0.607943,0.463414 0.799319,0.431124 0.191376,-0.03229 0.409938,-0.254128 0.597083,-0.27782 0.187145,-0.02369 0.342613,0.15047 0.471947,0.209358 0.129335,0.05889 0.232681,0.0028 0.40081,-0.23321 0.16813,-0.236032 0.401183,-0.65216 0.873199,-0.988987 0.472017,-0.336826 1.182765,-0.59419 1.471062,-0.610577 0.288298,-0.01639 0.154328,0.208072 0.09508,0.481517 -0.05925,0.273444 -0.04384,0.595675 0.167454,0.88584 0.211298,0.290164 0.618174,0.548328 1.335726,0.617044 0.717552,0.06872 1.745805,-0.05179 2.27446,-0.174994 0.528656,-0.123199 0.557969,-0.249298 0.53886,-0.724018 -0.01911,-0.474719 -0.08671,-1.298119 -0.0688,-1.738028 0.01791,-0.439908 0.121254,-0.495975 0.539623,-0.05946 0.418369,0.436516 1.151596,1.365236 1.644745,1.846098 0.493149,0.480862 0.746139,0.514096 1.034297,0.226703 0.288159,-0.287393 0.611837,-0.895451 0.887993,-1.335688 0.276156,-0.440236 0.504742,-0.712554 0.67547,-0.753687 0.170728,-0.04113 0.283384,0.148639 0.330601,0.670823 0.04722,0.522183 0.02918,1.376792 0.08584,1.734049 0.05666,0.357257 0.188002,0.217393 0.363349,0.02385 0.175348,-0.19354 0.39469,-0.440748 0.499252,-0.399279 0.104562,0.04147 0.09433,0.371367 0.429402,0.491688 0.335072,0.120321 1.015204,0.03135 1.327392,0.06229 0.312189,0.03095 0.256714,0.181632 0.20826,0.379146 -0.04845,0.197514 -0.0899,0.441766 0.127165,0.545754 0.217064,0.103989 0.692337,0.06793 1.071062,0.143292 0.378725,0.07536 0.660818,0.261918 0.998073,0.306126 0.337255,0.04421 0.729783,-0.05369 1.079588,-3.77e-4 0.349805,0.05331 0.656745,0.257572 2.342115,0.381724 1.685371,0.124151 4.749064,0.168384 7.812564,0.212613"
       id="path1404"
       inkscape:original-d="m 61.085879,96.509692 c 2.044414,-0.11414 4.088564,-0.22854 6.132451,-0.34321 0.600023,-0.22668 1.199756,-0.45363 1.799236,-0.68084 0.406508,-0.26655 0.812736,-0.53337 1.218708,-0.80045 0.514442,0.0755 1.028602,0.15071 1.542505,0.22566 0.132201,0.11443 0.264133,0.2286 0.395801,0.3425 0.313457,-0.26944 0.626639,-0.53914 0.939559,-0.80911 -0.436854,-0.64835 -0.873959,-1.29694 -1.311333,-1.9458 0.168663,0.0309 0.337052,0.0615 0.505184,0.0919 0.722837,0.45452 1.445382,0.90875 2.167676,1.36273 0.164727,0.15778 0.329181,0.31528 0.493377,0.47253 0.218828,-0.22157 0.437387,-0.44341 0.655685,-0.66551 0.155741,0.17444 0.311213,0.3486 0.466423,0.52251 0.103613,-0.0558 0.206957,-0.11187 0.310039,-0.1682 0.233325,-0.41587 0.466375,-0.832 0.699166,-1.2484 0.711042,-0.25711 1.421792,-0.51447 2.132291,-0.77211 -0.13371,0.22473 -0.267677,0.44919 -0.401913,0.67338 0.01566,0.3225 0.03108,0.64473 0.04622,0.9667 0.407159,0.25844 0.814038,0.5166 1.220657,0.77451 1.02856,-0.12025 2.056813,-0.24076 3.08482,-0.36154 0.02958,-0.12584 0.05889,-0.25194 0.08794,-0.3783 -0.06733,-0.82317 -0.134929,-1.64657 -0.202792,-2.47025 0.103611,-0.0558 0.206954,-0.11187 0.310036,-0.1682 0.733523,0.92902 1.466749,1.85774 2.199727,2.78622 0.253254,0.0335 0.506235,0.0668 0.758955,0.0997 0.323953,-0.60781 0.647628,-1.21587 0.971047,-1.8242 0.228865,-0.27207 0.457449,-0.54439 0.685779,-0.81698 0.11292,0.19004 0.22558,0.37981 0.33797,0.56932 -0.0178,0.85491 -0.0358,1.70952 -0.0541,2.56389 0.13161,-0.13961 0.26296,-0.27947 0.39404,-0.4196 0.21962,-0.24696 0.43896,-0.49417 0.65805,-0.74165 -0.01,0.33018 -0.0202,0.66008 -0.0307,0.98972 0.68041,-0.0887 1.36054,-0.17769 2.04041,-0.26693 -0.0552,0.15096 -0.11069,0.30164 -0.16643,0.45207 -0.0412,0.24453 -0.0826,0.48879 -0.12434,0.73279 0.47556,-0.0358 0.95083,-0.0719 1.42585,-0.10818 0.28237,0.18683 0.56446,0.37339 0.8463,0.55968 0.3928,-0.0976 0.78532,-0.19553 1.17759,-0.29369 0.30722,0.20454 0.61416,0.4088 0.92085,0.6128 3.06409,0.0445 6.127787,0.0887 9.191287,0.1327"
       inkscape:path-effect="#path-effect1406"
       inkscape:export-filename="../fido-and-kitch/assets/images/tree_1.png"
       inkscape:export-xdpi="96"
       inkscape:export-ydpi="96" />
    <path
       style="display:inline;fill:none;stroke:#105d0b;stroke-width:0.264583px;stroke-linecap:butt;stroke-linejoin:miter;stroke-opacity:1"
       d="m 66.532618,38.839016 c -0.151894,-0.283818 -0.303956,-0.567949 -0.502055,-0.730875 -0.1981,-0.162926 -0.442358,-0.204371 -0.959579,-0.18235 -0.517221,0.02202 -1.307313,0.107585 -2.021337,0.330978 -0.714025,0.223393 -1.351792,0.584628 -1.924841,1.041053 -0.573049,0.456425 -1.081246,1.007954 -1.373933,1.435029 -0.292687,0.427075 -0.369805,0.729499 -0.190471,1.094956 0.179335,0.365456 0.614802,0.793851 1.121651,1.105851 0.506849,0.312001 1.085006,0.507744 1.772688,0.584054 0.687682,0.07631 1.484935,0.0333 2.006105,0.01985 0.52117,-0.01345 0.766217,0.0026 1.154429,0.0443 0.388212,0.04169 0.919549,0.108972 1.457714,0.09176 0.538164,-0.01721 1.083208,-0.118845 1.532626,-0.278486 0.449417,-0.159641 0.803318,-0.377274 1.423571,-0.442672 0.620253,-0.0654 1.506603,0.02136 2.124724,0.01933 0.618121,-0.002 0.968085,-0.09278 1.642652,-0.550248 0.674566,-0.457468 1.673843,-1.281644 2.09011,-1.86974 0.416267,-0.588095 0.249388,-0.940421 -0.212179,-1.344304 -0.461566,-0.403882 -1.217946,-0.859165 -1.901095,-1.083662 -0.683148,-0.224497 -1.292979,-0.21801 -1.868058,-0.240068 -0.57508,-0.02206 -1.115401,-0.07268 -1.625599,-0.139303 -0.510199,-0.06662 -0.990257,-0.149245 -1.37997,-0.144448 -0.389713,0.0048 -0.688925,0.09712 -1.039248,0.06517 -0.350324,-0.03195 -0.751892,-0.188347 -1.108757,-0.15292 -0.356864,0.03543 -0.668732,0.262831 -0.980653,0.490274"
       id="path1408"
       inkscape:original-d="m 66.532618,38.839016 c -0.1518,-0.283869 -0.303861,-0.568 -0.456192,-0.852406 -0.243999,-0.04118 -0.488257,-0.08263 -0.73279,-0.124338 -0.789842,0.08583 -1.579933,0.171396 -2.37032,0.256696 -0.637516,0.361508 -1.275284,0.722741 -1.91334,1.083728 -0.507944,0.551804 -1.01614,1.103334 -1.524624,1.654619 -0.07685,0.302692 -0.153967,0.605116 -0.231357,0.907283 0.43574,0.428667 0.871207,0.857062 1.306425,1.285208 0.578429,0.196009 1.156586,0.391753 1.7345,0.587238 0.797518,-0.04274 1.594771,-0.08575 2.391759,-0.129024 0.245321,0.01633 0.490368,0.0324 0.735155,0.04821 0.531624,0.06755 1.062961,0.134836 1.594045,0.201856 0.545331,-0.101371 1.090375,-0.203003 1.635165,-0.304902 0.354179,-0.217377 0.70808,-0.435009 1.061722,-0.652911 0.88665,0.08703 1.773,0.173794 2.659103,0.260295 0.350243,-0.09049 0.700207,-0.181238 1.049914,-0.272253 0.999582,-0.823945 1.998859,-1.648121 2.997891,-2.472578 -0.166622,-0.352075 -0.333501,-0.704401 -0.500648,-1.056999 -0.756146,-0.455036 -1.512526,-0.910318 -2.269185,-1.365874 -0.609589,0.0067 -1.219419,0.01324 -1.829525,0.01946 -0.540078,-0.05037 -1.080399,-0.100995 -1.620996,-0.151889 -0.479814,-0.08237 -0.959873,-0.164994 -1.440207,-0.247887 -0.298958,0.09259 -0.598169,0.184915 -0.89765,0.276975 -0.401319,-0.156137 -0.802887,-0.312534 -1.204727,-0.469198 -0.311616,0.227678 -0.623484,0.455081 -0.935623,0.682225"
       inkscape:path-effect="#path-effect1410"
       inkscape:export-filename="../fido-and-kitch/assets/images/tree_1.png"
       inkscape:export-xdpi="96"
       inkscape:export-ydpi="96" />
    <path
       style="display:inline;fill:none;stroke:#583232;stroke-width:0.264583px;stroke-linecap:butt;stroke-linejoin:miter;stroke-opacity:1"
       d="m 69.626433,43.10086 c 0.510579,1.015282 1.020998,2.030249 1.331001,2.547766 0.310002,0.517517 0.419446,0.537847 1.119721,0.618829 0.700274,0.08098 1.99134,0.222635 2.690422,0.341803 0.699081,0.119169 0.806159,0.215626 0.749696,0.802339 -0.05646,0.586714 -0.276145,1.663682 -0.381835,2.342052 -0.10569,0.678371 -0.09743,0.958038 0.276865,1.452278 0.374299,0.494239 1.114348,1.203026 1.854143,1.91157"
       id="path1412"
       inkscape:original-d="m 69.626433,43.10086 c 0.510683,1.01523 1.021104,2.030196 1.531258,3.044897 0.109709,0.02058 0.219151,0.04092 0.328329,0.06099 1.291384,0.141922 2.58245,0.283575 3.873275,0.424966 0.107349,0.09673 0.214429,0.193185 0.321246,0.289382 -0.219426,1.077278 -0.439107,2.154246 -0.659058,3.230973 0.0085,0.279945 0.01677,0.559612 0.02477,0.839023 0.740344,0.70908 1.480394,1.417867 2.220193,2.126406"
       inkscape:path-effect="#path-effect1414"
       inkscape:export-filename="../fido-and-kitch/assets/images/tree_1.png"
       inkscape:export-xdpi="96"
       inkscape:export-ydpi="96" />
    <path
       style="display:inline;fill:none;stroke:#583232;stroke-width:0.264583px;stroke-linecap:butt;stroke-linejoin:miter;stroke-opacity:1"
       d="m 68.679603,43.325507 c 0.544979,1.270369 1.089822,2.54042 1.428419,3.228257 0.338598,0.687836 0.470791,0.793541 0.769898,0.840802 0.299106,0.04726 0.765131,0.03632 1.172339,0.01083 0.407208,-0.02548 0.755599,-0.06548 1.067318,-0.01338 0.311719,0.0521 0.586665,0.196105 0.696085,0.347676 0.10942,0.151571 0.05368,0.310717 -0.142252,0.622111 -0.195933,0.311394 -0.532066,0.775124 -0.644235,1.118935 -0.112169,0.343811 -5.68e-4,0.567414 0.170441,0.788604 0.171008,0.22119 0.401299,0.440011 0.725061,0.784525 0.323762,0.344515 0.740997,0.814678 1.111967,1.274963 0.370969,0.460285 0.695681,0.910643 1.020185,1.360712"
       id="path1416"
       inkscape:original-d="m 68.679603,43.325507 c 0.545105,1.270315 1.089948,2.540366 1.634527,3.810151 0.132464,0.105974 0.264657,0.21168 0.396589,0.317122 0.466313,-0.01069 0.932339,-0.02162 1.398112,-0.03284 0.34867,-0.03973 0.69706,-0.07973 1.045191,-0.119988 0.275222,0.144272 0.550169,0.288274 0.824854,0.432014 -0.05548,0.159414 -0.111215,0.318561 -0.167219,0.477443 -0.33588,0.464013 -0.672015,0.927741 -1.008417,1.391214 0.111871,0.22388 0.223472,0.447484 0.334814,0.67083 0.230564,0.219093 0.460854,0.437914 0.690883,0.656473 0.417518,0.470448 0.834755,0.94061 1.251733,1.410518 0.324991,0.450644 0.649703,0.901001 0.974159,1.351105"
       inkscape:path-effect="#path-effect1418"
       inkscape:export-filename="../fido-and-kitch/assets/images/tree_1.png"
       inkscape:export-xdpi="96"
       inkscape:export-ydpi="96" />
    <path
       style="display:inline;fill:none;stroke:#105d0b;stroke-width:0.264583px;stroke-linecap:butt;stroke-linejoin:miter;stroke-opacity:1"
       d="m 96.299253,32.421266 c 0.272084,-0.584145 0.544225,-1.168412 0.680989,-2.163245 0.136764,-0.994833 0.138097,-2.400325 0.227969,-3.65919 0.08987,-1.258865 0.268307,-2.370981 0.279605,-3.416303 0.0113,-1.045321 -0.144622,-2.02387 -0.578686,-2.630144 -0.434065,-0.606273 -1.146515,-0.84005 -2.212816,-0.860489 -1.066301,-0.02044 -2.486291,0.172593 -3.68944,0.740705 -1.203149,0.568112 -2.189181,1.511236 -3.009104,2.556966 -0.819923,1.04573 -1.473634,2.193905 -1.85682,3.219335 -0.383186,1.02543 -0.495851,1.927909 -0.459702,3.220329 0.03615,1.292421 0.221046,2.974633 0.624069,4.58747 0.403024,1.612836 1.024048,3.15617 1.743813,4.385063 0.719765,1.228894 1.538106,2.14332 2.197421,2.726783 0.659316,0.583463 1.159506,0.836056 1.626453,0.930884 0.466947,0.09483 0.900706,0.03208 1.216937,-0.203591 0.31623,-0.23567 0.515182,-0.644384 0.914253,-0.949613 0.399072,-0.305229 0.998022,-0.506794 2.217345,-0.64253 1.219323,-0.135736 3.058844,-0.205682 5.091101,-0.345865 2.03226,-0.140183 4.25716,-0.350582 5.76857,-0.625472 1.51141,-0.274889 2.30938,-0.614223 2.89219,-1.116808 0.58281,-0.502585 0.95062,-1.168543 1.17821,-1.817632 0.22759,-0.649089 0.31495,-1.281412 0.12639,-2.023877 -0.18855,-0.742465 -0.65319,-1.595115 -1.30346,-2.330821 -0.65027,-0.735705 -1.48626,-1.354334 -2.12501,-1.645216 -0.63876,-0.290883 -1.08019,-0.253775 -1.79261,-0.08114 -0.71242,0.172636 -1.69569,0.480817 -2.82331,0.666007 -1.12762,0.18519 -2.39961,0.247338 -3.485137,0.167139 -1.085524,-0.0802 -1.984594,-0.302829 -2.884,-0.525542"
       id="path1420"
       inkscape:original-d="m 96.299253,32.421266 c 0.2724,-0.583998 0.54454,-1.168265 0.81642,-1.752793 0.002,-1.405284 0.003,-2.810777 0.004,-4.216561 0.17871,-1.111898 0.35715,-2.224013 0.53532,-3.336417 -0.15566,-0.978323 -0.31158,-1.956872 -0.46777,-2.935703 -0.71221,-0.233521 -1.42466,-0.467299 -2.13739,-0.701344 -1.41978,0.193304 -2.83977,0.386334 -4.26004,0.579104 -0.98581,0.94343 -1.97184,1.886556 -2.95816,2.829436 -0.653472,1.148487 -1.307183,2.296662 -1.961172,3.444597 -0.112406,0.902782 -0.225068,1.805262 -0.338,2.707497 0.185169,1.682543 0.370065,3.364756 0.554702,5.046739 0.621313,1.543661 1.242337,3.086994 1.86311,4.630095 0.81864,0.914725 1.63698,1.829151 2.45507,2.743332 0.50047,0.252867 1.00066,0.50546 1.5006,0.757793 0.43405,-0.06249 0.86781,-0.125235 1.30132,-0.188249 0.19923,-0.408466 0.39818,-0.817181 0.59687,-1.226169 0.59924,-0.201308 1.19819,-0.402873 1.79688,-0.604705 1.83986,-0.06968 3.67938,-0.139628 5.518667,-0.209841 2.22525,-0.210143 4.45015,-0.420539 6.67482,-0.631208 0.79826,-0.33908 1.59623,-0.678411 2.39394,-1.018014 0.36808,-0.665718 0.73589,-1.331674 1.10344,-1.997906 0.0876,-0.632081 0.17497,-1.264401 0.26206,-1.896999 -0.4644,-0.852421 -0.92904,-1.705072 -1.39395,-2.558004 -0.83575,-0.618387 -1.67174,-1.237012 -2.508,-1.855915 -0.4412,0.03738 -0.88263,0.07449 -1.32434,0.111329 -0.98305,0.308459 -1.96632,0.616643 -2.94988,0.924565 -1.27177,0.06242 -2.54376,0.124566 -3.816027,0.186449 -0.89884,-0.222374 -1.79791,-0.445005 -2.69727,-0.667903"
       inkscape:path-effect="#path-effect1422"
       inkscape:export-filename="../fido-and-kitch/assets/images/tree_1.png"
       inkscape:export-xdpi="96"
       inkscape:export-ydpi="96" />
    <path
       style="display:inline;fill:none;stroke:#583232;stroke-width:0.264583px;stroke-linecap:butt;stroke-linejoin:miter;stroke-opacity:1"
       d="m 90.655753,41.568627 c 0.02144,1.220215 0.04287,2.44016 0.07828,3.48274 0.03541,1.04258 0.08478,1.907754 -0.0075,2.696527 -0.09224,0.788774 -0.326017,1.501222 -0.645591,2.113592 -0.319574,0.61237 -0.724954,1.124754 -1.039527,1.440942 -0.314574,0.316189 -0.538435,0.436246 -0.762406,0.556363"
       id="path1424"
       inkscape:original-d="m 90.655753,41.568627 c 0.0217,1.22021 0.0431,2.440156 0.0643,3.659838 0.0496,0.86547 0.099,1.730642 0.14811,2.595565 -0.23352,0.712742 -0.4673,1.425189 -0.70134,2.137389 -0.40513,0.512667 -0.81051,1.025051 -1.21616,1.537179 -0.22362,0.120332 -0.44748,0.240392 -0.67162,0.360193"
       inkscape:path-effect="#path-effect1426"
       inkscape:export-filename="../fido-and-kitch/assets/images/tree_1.png"
       inkscape:export-xdpi="96"
       inkscape:export-ydpi="96" />
    <path
       style="display:inline;fill:none;stroke:#583232;stroke-width:0.264583px;stroke-linecap:butt;stroke-linejoin:miter;stroke-opacity:1"
       d="m 92.595633,42.086032 c 0.05411,0.713204 0.108202,1.426134 0.178166,2.173431 0.06996,0.747296 0.155789,1.528929 0.05705,2.253974 -0.09874,0.725046 -0.381959,1.393628 -0.662398,2.108894 -0.280438,0.715266 -0.558086,1.477155 -0.980334,2.124426 -0.422248,0.647272 -0.989136,1.180049 -1.556041,1.712842"
       id="path1428"
       inkscape:original-d="m 92.595633,42.086032 c 0.0543,0.71319 0.10845,1.426115 0.16227,2.138773 0.0861,0.781928 0.17192,1.563561 0.25748,2.344944 -0.28296,0.668869 -0.56618,1.33745 -0.84966,2.005777 -0.2774,0.762185 -0.55504,1.524077 -0.83296,2.285717 -0.56664,0.533059 -1.13353,1.065834 -1.70069,1.598356"
       inkscape:path-effect="#path-effect1430"
       inkscape:export-filename="../fido-and-kitch/assets/images/tree_1.png"
       inkscape:export-xdpi="96"
       inkscape:export-ydpi="96" />
    <path
       style="display:inline;fill:none;stroke:#105d0b;stroke-width:0.264583px;stroke-linecap:butt;stroke-linejoin:miter;stroke-opacity:1"
       d="m 80.458279,18.056437 c -0.402111,-0.270626 -1.206636,-0.812082 -1.629686,-1.235819 -0.423049,-0.423736 -0.464357,-0.729832 -0.514498,-0.752602 -0.05014,-0.02277 -0.109028,0.237883 -0.245567,0.411333 -0.136539,0.17345 -0.350898,0.259938 -0.550613,0.148081 -0.199715,-0.111857 -0.384823,-0.42241 -0.518058,-0.498615 -0.133236,-0.0762 -0.214352,0.08215 -0.270216,0.245587 -0.05586,0.163433 -0.08649,0.331824 -0.161712,0.43943 -0.07523,0.107607 -0.195225,0.154688 -0.461777,0.01531 -0.266552,-0.139374 -0.679789,-0.465473 -0.928447,-0.777963 -0.248658,-0.31249 -0.332524,-0.611441 -0.385017,-1.104195 -0.05249,-0.492753 -0.07353,-1.179238 -0.02197,-1.61381 0.05156,-0.434572 0.175754,-0.616995 0.555567,-0.986282 0.379814,-0.369288 1.015158,-0.92534 1.856848,-1.305676 0.84169,-0.380335 1.889482,-0.58491 2.816017,-0.700097 0.926535,-0.115187 1.731707,-0.141014 2.248656,-0.01899 0.51695,0.122026 0.745665,0.3916 0.973969,0.809367 0.228303,0.417766 0.456295,0.983665 0.507051,1.391564 0.05076,0.407899 -0.07554,0.657992 -0.184136,0.88325 -0.108597,0.225258 -0.199482,0.425647 -0.220207,0.958525 -0.02072,0.532879 0.02864,1.398051 0.09556,1.971685 0.06692,0.573635 0.151308,0.855664 0.297781,1.050642 0.146473,0.194977 0.354797,0.303044 0.441152,0.652932 0.08636,0.349888 0.05107,0.941489 -0.07299,1.259248 -0.124063,0.317758 -0.33711,0.361951 -0.889457,0.154401 -0.552348,-0.20755 -1.44407,-0.667031 -1.890097,-0.896857 -0.446028,-0.229826 -0.446036,-0.229829 -0.848147,-0.500455 z"
       id="path1432"
       inkscape:original-d="m 80.86039,18.327063 c -0.804262,-0.541192 -1.608788,-1.082648 -2.413577,-1.624369 -0.04104,-0.305843 -0.08235,-0.611939 -0.123925,-0.918306 -0.05863,0.260927 -0.117512,0.521581 -0.176665,0.781974 -0.214104,0.08676 -0.428464,0.173244 -0.643091,0.259469 -0.184854,-0.310304 -0.369962,-0.620858 -0.55534,-0.931686 -0.08085,0.158629 -0.16197,0.316987 -0.243353,0.475084 -0.03036,0.168661 -0.06098,0.337052 -0.09187,0.505182 -0.119739,0.04735 -0.239739,0.09443 -0.360005,0.141245 -0.412991,-0.32585 -0.826228,-0.651949 -1.239737,-0.978318 -0.0836,-0.298696 -0.167468,-0.597646 -0.2516,-0.896863 -0.02077,-0.686248 -0.04182,-1.372733 -0.06312,-2.059496 0.124468,-0.182166 0.248666,-0.364588 0.372599,-0.54728 0.635635,-0.555808 1.270979,-1.111861 1.906069,-1.66819 1.048102,-0.204319 2.095894,-0.408895 3.143446,-0.613738 0.805468,-0.02556 1.61064,-0.05139 2.415563,-0.07748 0.228989,0.269851 0.457706,0.539424 0.68616,0.808738 0.228264,0.566185 0.456256,1.132084 0.683988,1.697726 -0.126037,0.25037 -0.252333,0.500464 -0.378897,0.750297 -0.09063,0.200666 -0.181512,0.401056 -0.272666,0.601184 0.04963,0.86547 0.099,1.730642 0.148103,2.595565 0.08466,0.282308 0.169048,0.564338 0.253172,0.846108 0.208598,0.108337 0.416922,0.216403 0.624986,0.324208 -0.03502,0.591888 -0.07031,1.183489 -0.105858,1.774835 -0.212791,0.04446 -0.425839,0.08865 -0.639154,0.132583 -0.891495,-0.459235 -1.783217,-0.918716 -2.67522,-1.378469 z"
       inkscape:path-effect="#path-effect1434"
       inkscape:export-filename="../fido-and-kitch/assets/images/tree_1.png"
       inkscape:export-xdpi="96"
       inkscape:export-ydpi="96" />
    <path
       style="display:inline;fill:none;stroke:#583232;stroke-width:0.264583px;stroke-linecap:butt;stroke-linejoin:miter;stroke-opacity:1"
       d="m 84.054964,19.340618 c 0.491792,0.803011 0.983394,1.605712 1.52696,2.371919 0.543566,0.766206 1.139025,1.495908 1.734262,2.225339"
       id="path1436"
       inkscape:original-d="m 84.054964,19.340618 c 0.491865,0.802966 0.983467,1.605667 1.474806,2.408103 0.595749,0.729999 1.191207,1.459701 1.786416,2.189155"
       inkscape:path-effect="#path-effect1438"
       inkscape:export-filename="../fido-and-kitch/assets/images/tree_1.png"
       inkscape:export-xdpi="96"
       inkscape:export-ydpi="96" />
    <path
       style="display:inline;fill:none;stroke:#583232;stroke-width:0.264583px;stroke-linecap:butt;stroke-linejoin:miter;stroke-opacity:1"
       d="M 86.99895,24.346657 C 86.308002,23.423924 85.61683,22.500891 85.023079,21.71415 84.429328,20.927409 83.933013,20.276985 83.436463,19.626252"
       id="path1440"
       sodipodi:nodetypes="ccc"
       inkscape:original-d="m 86.99895,24.346657 c -0.690905,-0.922765 -1.382078,-1.845798 -2.073512,-2.769092 -0.49607,-0.650187 -0.992386,-1.30061 -1.488975,-1.951313"
       inkscape:path-effect="#path-effect1442"
       inkscape:export-filename="../fido-and-kitch/assets/images/tree_1.png"
       inkscape:export-xdpi="96"
       inkscape:export-ydpi="96" />
    <path
       style="display:inline;fill:url(#radialGradient3599);fill-opacity:1;stroke:url(#radialGradient3591);stroke-width:0.143851;stroke-miterlimit:4;stroke-dasharray:none;filter:url(#filter3621)"
       d="m 75.251811,81.804176 c -3.45602,-0.566343 -5.690661,-1.814568 -7.24653,-4.047762 -0.793671,-1.139183 -1.829935,-3.523745 -2.08823,-4.80526 -0.352866,-1.750729 -0.05388,-4.279897 0.617051,-5.219795 0.505817,-0.708591 2.077392,-1.131676 3.928999,-1.057733 0.820515,0.03277 1.317284,0.149239 2.20255,0.516406 0.628695,0.260755 1.526358,0.551627 1.994805,0.646385 1.040062,0.210386 2.867798,0.155829 2.87745,-0.08589 0.0048,-0.120464 -0.420981,-0.183642 -1.464646,-0.217315 -1.174192,-0.03789 -1.674492,-0.123137 -2.476664,-0.422013 l -1.005237,-0.374534 -0.271468,-1.688798 c -0.63727,-3.964456 0.274222,-7.906716 2.296388,-9.932006 1.774206,-1.776949 6.094963,-3.21524 10.398387,-3.461409 2.884688,-0.165012 5.606457,1.229929 7.742581,3.968168 1.430303,1.833473 2.061096,3.744444 1.798886,5.449697 -0.319855,2.080125 -1.511903,3.898905 -4.596045,7.012459 -2.236295,2.25762 -2.788539,2.927286 -3.094509,3.752484 -0.335391,0.904547 -0.174664,1.524273 0.909397,3.506436 1.305031,2.386195 1.509996,2.983116 1.267061,3.690035 -0.254614,0.740905 -1.063437,1.565683 -1.994509,2.033847 -0.757248,0.380765 -0.845264,0.391515 -2.401969,0.293367 -1.318522,-0.08313 -2.008053,-0.03979 -3.746622,0.23553 -2.477101,0.392271 -4.146219,0.45366 -5.647126,0.207703 z"
       id="path3582"
       inkscape:export-filename="../fido-and-kitch/assets/images/tree_1.png"
       inkscape:export-xdpi="96"
       inkscape:export-ydpi="96" />
    <path
       style="display:inline;opacity:0.546624;mix-blend-mode:normal;fill:url(#linearGradient3610);fill-opacity:1;stroke-width:0.0359627;filter:url(#filter3621)"
       d="m 80.125269,94.122205 c -0.615643,-0.139287 -0.985928,-0.431046 -1.075169,-0.847156 -0.03049,-0.142193 -0.02643,-0.236675 0.01966,-0.455986 0.07249,-0.345075 0.07087,-0.462865 -0.0076,-0.549534 -0.189834,-0.209764 -1.103072,0.07022 -1.80331,0.552863 -0.281721,0.194177 -0.522616,0.452543 -0.83452,0.895035 -0.107519,0.152535 -0.21639,0.285599 -0.241938,0.295698 -0.02553,0.01011 -0.11077,-0.02421 -0.189388,-0.07623 -0.0863,-0.05711 -0.211725,-0.101203 -0.316524,-0.111274 -0.151122,-0.01452 -0.209616,0.0024 -0.452107,0.130064 -0.230635,0.12151 -0.291698,0.140129 -0.35515,0.108286 -0.15326,-0.07692 -0.630423,-0.409109 -0.622922,-0.433668 0.0042,-0.01386 0.227486,-0.288557 0.496112,-0.610404 1.25067,-1.498462 2.425473,-3.309847 3.369887,-5.195895 0.82677,-1.651109 1.381734,-3.140872 1.851872,-4.97123 0.105817,-0.411972 0.197331,-0.753287 0.203369,-0.758478 0.01572,-0.01352 1.943852,-0.341652 2.007603,-0.341652 0.04642,0 0.04757,0.05996 0.0092,0.475758 -0.145317,1.572337 -0.08285,2.693411 0.220578,3.958651 0.365469,1.523945 1.050237,2.963201 2.087412,4.387361 0.776004,1.06554 1.454613,1.750734 2.127962,2.148601 l 0.18407,0.108763 -0.236794,0.348244 c -0.477549,0.70231 -0.596783,0.704459 -1.260351,0.0227 -0.161245,-0.165669 -0.522644,-0.56782 -0.803108,-0.893668 -0.861819,-1.001278 -1.064188,-1.180372 -1.274201,-1.127662 -0.22819,0.05727 -0.255011,0.26955 -0.195901,1.550493 0.03539,0.766829 0.03626,1.015794 0.0038,1.076507 -0.05207,0.09729 -0.377452,0.200885 -0.884368,0.281562 -0.512516,0.08157 -1.724919,0.100854 -2.0281,0.03226 z"
       id="path3601"
       inkscape:export-filename="../fido-and-kitch/assets/images/tree_1.png"
       inkscape:export-xdpi="96"
       inkscape:export-ydpi="96" />
    <path
       style="display:inline;fill:url(#radialGradient3634);fill-opacity:1;stroke:none;stroke-width:0.143851;stroke-miterlimit:4;stroke-dasharray:none;filter:url(#filter3621)"
       d="m 91.764541,41.794165 c -0.685774,-0.234108 -1.316014,-0.748014 -2.282113,-1.860872 -1.969098,-2.26822 -3.155691,-5.455135 -3.510251,-9.427716 -0.209394,-2.346108 -0.01453,-3.527451 0.860332,-5.215556 1.835603,-3.541927 4.175279,-5.241494 7.358216,-5.345084 1.377265,-0.04482 2.049986,0.163288 2.530382,0.782797 0.585174,0.75462 0.626841,1.605243 0.297067,6.064596 -0.25952,3.509336 -0.345001,4.172474 -0.629523,4.883759 -0.301766,0.754382 -0.308491,0.82002 -0.08065,0.78681 0.150273,-0.02191 0.348607,-0.301472 0.501499,-0.706906 0.139105,-0.368869 0.291441,-0.706237 0.338527,-0.749705 0.04708,-0.04347 0.736205,0.02868 1.531379,0.160327 1.881034,0.311422 3.833374,0.181493 6.452714,-0.429435 l 1.92175,-0.448228 0.65747,0.281641 c 1.34383,0.575657 2.90537,2.327966 3.30554,3.709345 0.50595,1.746588 -0.66158,3.832492 -2.47921,4.42935 -1.39888,0.459348 -4.14436,0.80119 -8.82613,1.098941 -4.814247,0.306179 -5.126405,0.373438 -6.234422,1.343287 -0.824069,0.721307 -1.137557,0.838946 -1.712579,0.642649 z"
       id="path3625"
       inkscape:export-filename="../fido-and-kitch/assets/images/tree_1.png"
       inkscape:export-xdpi="96"
       inkscape:export-ydpi="96" />
    <path
       style="display:inline;fill:#060404;fill-opacity:0.0120967;stroke:none;stroke-width:0.143851;stroke-miterlimit:4;stroke-dasharray:none;filter:url(#filter3621)"
       d="m 91.764541,41.794165 c -0.685774,-0.234108 -1.316014,-0.748014 -2.282113,-1.860872 -1.969098,-2.26822 -3.155691,-5.455135 -3.510251,-9.427716 -0.209394,-2.346108 -0.01453,-3.527451 0.860332,-5.215556 1.835603,-3.541927 4.175279,-5.241494 7.358216,-5.345084 1.377265,-0.04482 2.049986,0.163288 2.530382,0.782797 0.585174,0.75462 0.626841,1.605243 0.297067,6.064596 -0.25952,3.509336 -0.345001,4.172474 -0.629523,4.883759 -0.301766,0.754382 -0.308491,0.82002 -0.08065,0.78681 0.150273,-0.02191 0.348607,-0.301472 0.501499,-0.706906 0.139105,-0.368869 0.291441,-0.706237 0.338527,-0.749705 0.04708,-0.04347 0.736205,0.02868 1.531379,0.160327 1.881034,0.311422 3.833374,0.181493 6.452714,-0.429435 l 1.92175,-0.448228 0.65747,0.281641 c 1.34383,0.575657 2.90537,2.327966 3.30554,3.709345 0.50595,1.746588 -0.66158,3.832492 -2.47921,4.42935 -1.39888,0.459348 -4.14436,0.80119 -8.82613,1.098941 -4.814247,0.306179 -5.126405,0.373438 -6.234422,1.343287 -0.824069,0.721307 -1.137557,0.838946 -1.712579,0.642649 z"
       id="path3636"
       inkscape:export-filename="../fido-and-kitch/assets/images/tree_1.png"
       inkscape:export-xdpi="96"
       inkscape:export-ydpi="96" />
  </g>
</svg>
